<?xml version="1.0" standalone="no"?>
<!DOCTYPE svg PUBLIC "-//W3C//DTD SVG 20010904//EN"
 "http://www.w3.org/TR/2001/REC-SVG-20010904/DTD/svg10.dtd">
<svg version="1.0" xmlns="http://www.w3.org/2000/svg"
 width="300.000000pt" height="133.000000pt" viewBox="0 0 300.000000 133.000000"
 preserveAspectRatio="xMidYMid meet">
<metadata>
Created by potrace 1.10, written by Peter Selinger 2001-2011
</metadata>
<g transform="translate(0.000000,133.000000) scale(0.100000,-0.100000)"
fill="#fff" stroke="none">
<path d="M368 883 c-32 -8 -13 -97 29 -139 13 -12 14 -19 5 -22 -19 -6 -14
-53 11 -97 34 -60 78 -85 150 -85 79 0 129 28 157 87 51 109 0 227 -110 252
-44 10 -208 13 -242 4z m272 -32 c140 -74 99 -283 -59 -299 -83 -8 -156 46
-175 131 -6 27 -6 27 41 27 l48 0 -40 19 c-45 20 -74 57 -85 108 l-8 33 122 0
c99 0 128 -3 156 -19z"/>
<path d="M1325 859 c-16 -5 -45 -16 -62 -26 -32 -17 -33 -17 -53 5 -31 33 -86
30 -139 -8 l-42 -30 -24 26 c-35 38 -121 46 -149 15 -18 -20 -19 -26 -7 -71 7
-27 11 -82 9 -121 l-3 -72 30 -8 c46 -13 95 6 95 37 0 23 3 25 43 22 34 -2 42
-7 42 -23 0 -45 100 -61 139 -22 23 23 55 23 70 -2 4 -5 30 -15 59 -21 69 -16
154 0 187 35 28 30 40 32 40 7 0 -11 11 -24 25 -30 35 -16 194 -14 225 3 20
11 29 11 51 -1 45 -23 166 -19 216 7 18 9 29 8 58 -5 35 -17 37 -17 78 4 36
19 42 20 52 7 19 -26 76 -36 124 -21 33 10 50 10 65 2 12 -6 61 -11 110 -10
114 2 138 15 134 75 -2 31 -8 44 -26 53 -34 17 -34 17 -8 74 23 49 23 55 9 76
-14 23 -21 24 -118 24 -86 0 -104 -3 -118 -18 -29 -32 -16 -112 17 -112 11 0
12 -7 3 -35 -18 -61 -56 -39 -57 33 0 12 -4 22 -10 22 -5 0 -10 7 -10 15 0 9
-11 33 -25 55 -25 40 -26 40 -88 40 -84 -1 -102 -15 -93 -74 9 -57 -5 -65 -32
-18 -42 76 -62 86 -171 90 -77 3 -104 1 -122 -11 -21 -14 -26 -14 -43 -1 -14
10 -49 14 -122 14 -99 0 -103 -1 -123 -27 l-21 -26 -23 20 c-43 39 -123 53
-192 32z m135 -35 c48 -19 70 -55 70 -114 0 -59 -22 -95 -70 -114 -72 -29
-151 -15 -195 34 -15 17 -20 36 -20 80 0 44 5 63 20 80 44 49 123 63 195 34z
m-460 -40 l33 -46 33 38 c18 22 33 42 34 47 0 4 23 7 50 7 57 0 66 -17 28 -57
-12 -13 -16 -23 -10 -23 8 0 12 -22 12 -64 0 -36 5 -68 10 -71 25 -15 5 -25
-50 -25 -58 0 -70 6 -51 26 10 9 20 134 11 134 -3 0 -23 -25 -44 -55 l-39 -54
-39 51 -38 52 0 -59 c0 -40 5 -64 17 -77 15 -17 14 -18 -42 -18 -56 0 -57 1
-42 18 12 13 17 37 17 80 0 38 4 62 11 62 6 0 -1 14 -15 31 -14 17 -26 35 -26
40 0 5 24 9 53 9 52 0 54 -1 87 -46z m800 6 c0 -22 -3 -40 -6 -40 -12 0 -49
24 -57 36 -4 8 -19 14 -32 14 -22 0 -25 -4 -25 -40 0 -44 18 -53 48 -23 16 16
17 14 20 -21 4 -45 -5 -58 -22 -33 -24 32 -46 21 -46 -23 0 -36 3 -40 25 -40
13 0 35 11 49 25 37 37 52 32 51 -15 l0 -40 -119 0 c-115 0 -118 1 -103 18 12
13 17 37 17 80 0 38 4 62 11 62 6 0 -1 14 -15 31 -14 17 -26 35 -26 40 0 5 51
9 115 9 l115 0 0 -40z m254 26 c46 -19 66 -52 66 -106 0 -88 -49 -120 -186
-120 -84 0 -86 1 -71 18 12 13 17 37 17 80 0 43 4 62 13 62 8 1 7 5 -4 13 -15
11 -39 49 -39 61 0 12 172 5 204 -8z m312 -106 l40 -120 -63 0 c-63 0 -73 6
-51 28 19 19 -4 34 -48 30 -35 -3 -39 -6 -39 -30 1 -26 -2 -28 -37 -28 -41 0
-49 13 -19 30 11 5 27 33 36 62 10 29 25 59 34 66 11 9 12 15 5 20 -11 7 -34
45 -34 56 0 3 31 6 68 6 l68 0 40 -120z m294 106 c0 -7 -9 -25 -20 -39 -11
-14 -20 -28 -20 -32 0 -4 -16 -33 -35 -65 -19 -32 -35 -60 -35 -62 0 -13 55 7
75 28 37 37 55 31 55 -16 l0 -40 -120 0 c-114 0 -120 1 -111 18 6 10 33 55 60
100 28 45 51 84 51 87 0 15 -42 2 -64 -20 -37 -37 -51 -32 -51 15 l0 40 107 0
c85 0 108 -3 108 -14z m-816 -62 c7 -18 8 -84 1 -84 -2 0 -16 5 -30 12 -28 12
-34 43 -10 52 8 3 15 12 15 21 0 20 16 19 24 -1z"/>
<path d="M1358 799 c-15 -8 -18 -24 -18 -89 0 -68 3 -81 19 -90 28 -14 38 -13
61 10 16 16 20 33 20 80 0 47 -4 64 -20 80 -22 22 -37 24 -62 9z m50 -93 c3
-42 1 -47 -15 -44 -11 2 -18 12 -17 25 0 12 -3 20 -8 17 -10 -6 -11 10 0 20 4
4 8 12 8 17 3 19 4 21 17 17 7 -3 13 -25 15 -52z"/>
<path d="M1950 710 l0 -90 29 0 c41 0 57 27 55 94 -2 65 -15 86 -55 86 l-29 0
0 -90z"/>
<path d="M2247 760 c-11 -32 -27 -83 -27 -86 0 -2 14 -4 30 -4 34 0 34 0 16
60 -8 27 -16 39 -19 30z"/>
</g>
</svg>
