<?xml version="1.0" standalone="no"?>
<!DOCTYPE svg PUBLIC "-//W3C//DTD SVG 20010904//EN"
 "http://www.w3.org/TR/2001/REC-SVG-20010904/DTD/svg10.dtd">
<svg version="1.0" xmlns="http://www.w3.org/2000/svg"
 width="300.000000pt" height="277.000000pt" viewBox="0 0 300.000000 277.000000"
 preserveAspectRatio="xMidYMid meet">
<metadata>
Created by potrace 1.10, written by Peter Selinger 2001-2011
</metadata>
<g transform="translate(0.000000,277.000000) scale(0.050000,-0.050000)"
fill="#fff" stroke="none">
<path d="M2990 4712 c-129 -58 -210 -188 -210 -338 -1 -157 -9 -167 -147 -182
-67 -7 -249 -26 -403 -42 -154 -17 -316 -30 -360 -30 -44 0 -122 -15 -174 -34
-84 -29 -101 -30 -148 -5 -49 26 -145 33 -318 24 -33 -2 -235 2 -449 8 -544
15 -678 -44 -697 -312 -12 -163 121 -361 243 -361 30 0 33 -49 33 -515 -1
-340 -7 -505 -20 -485 -16 25 -19 24 -20 -7 0 -21 -23 -65 -52 -99 -41 -48
-48 -72 -35 -113 9 -28 16 -277 17 -554 0 -532 10 -587 104 -587 16 0 23 -9
16 -19 -6 -11 13 -25 44 -32 31 -7 65 -15 76 -18 40 -12 354 24 367 41 17 24
59 20 133 -11 37 -16 141 -24 274 -23 322 4 302 17 439 -272 77 -164 125 -243
140 -234 13 8 18 5 11 -6 -27 -44 104 -136 192 -135 90 2 534 178 534 212 0
11 8 14 18 8 23 -14 342 128 342 153 0 10 8 13 18 7 33 -20 89 12 59 34 -20
14 -18 16 8 7 20 -6 109 21 198 61 283 124 378 150 617 169 313 25 300 25 394
-4 68 -21 108 -21 213 0 98 19 155 20 236 4 64 -13 217 -18 377 -12 279 11
288 11 494 5 219 -7 347 138 266 302 -148 301 -261 594 -248 642 8 28 13 58
11 66 -2 8 6 15 16 15 37 0 163 126 153 153 -6 15 -2 27 9 27 33 0 21 45 -35
125 l-53 77 68 134 c119 231 113 393 -27 696 -60 131 -115 257 -122 281 -18
58 -186 230 -295 300 -99 65 -129 90 -132 112 -23 191 -79 335 -164 425 -31
33 -75 101 -97 150 -50 110 -116 175 -206 200 -111 32 -1635 24 -1708 -8z
m1773 -145 c53 -47 54 -239 2 -215 -45 20 -286 26 -325 7 -16 -8 -61 -20 -100
-26 -62 -9 -194 -50 -310 -95 -22 -8 -59 -21 -83 -27 -23 -7 -68 -34 -100 -62
-72 -62 -169 -109 -230 -110 -26 0 -83 -13 -126 -29 -108 -38 -110 -27 -13 82
147 168 102 264 -121 260 -248 -6 -263 -98 -53 -323 l57 -62 -49 -26 c-27 -14
-54 -45 -60 -68 -10 -36 -15 -38 -32 -13 -14 21 -17 3 -9 -60 6 -49 2 -117 -8
-150 -16 -50 -20 -34 -21 94 -1 84 -11 159 -22 166 -11 7 -20 -7 -20 -30 0
-23 -9 -37 -20 -30 -11 7 -20 30 -20 51 0 38 -90 99 -146 99 -68 0 -78 482
-12 553 l45 47 870 0 c781 0 874 -3 906 -33z m136 -372 c27 -64 85 -378 73
-390 -5 -5 -39 0 -74 13 -35 12 -104 22 -152 22 -50 0 -83 8 -77 19 16 26 -24
47 -54 28 -14 -9 -41 -13 -60 -10 -24 4 -35 -8 -35 -36 0 -22 -11 -41 -25 -41
-14 0 -72 -22 -129 -49 l-103 -48 -13 64 c-7 34 -27 120 -44 190 -40 167 -37
170 284 224 143 24 264 47 268 51 31 28 125 3 141 -37z m-717 -360 l39 -154
-84 -76 c-95 -86 -118 -91 -146 -34 -12 22 -59 104 -107 182 -104 173 -100
184 92 270 l154 70 6 -52 c4 -28 24 -121 46 -206z m-1366 200 c-4 -31 -22 -47
-56 -51 -85 -10 -180 -70 -181 -114 -2 -38 -3 -37 -23 5 -22 46 -82 69 -256
101 -87 16 -81 18 160 58 341 57 364 57 356 1z m-1664 -167 c-7 -17 -12 -71
-12 -120 l0 -88 -145 0 -145 0 6 -690 5 -690 -150 0 -151 0 0 690 0 690 -150
0 -150 0 0 117 c0 64 4 120 8 125 29 28 895 -5 884 -34z m388 -778 l0 -810
-145 -2 c-80 -2 -129 -7 -110 -12 90 -23 18 -46 -145 -46 -151 0 -180 5 -180
32 0 26 23 30 140 25 l140 -7 0 815 0 815 150 0 150 0 0 -810z m840 759 c203
-119 232 -530 47 -664 l-55 -40 64 -33 c87 -45 129 -136 140 -305 24 -373
-126 -527 -514 -527 l-117 0 27 -105 c15 -58 50 -249 78 -425 68 -421 81 -467
141 -494 88 -40 52 -56 -130 -56 -170 0 -249 23 -159 46 37 10 40 21 28 98
-19 113 -11 107 -128 99 l-102 -7 0 -87 c0 -69 8 -89 40 -99 113 -36 8 -50
-370 -50 -367 0 -488 15 -370 46 47 12 48 18 43 564 -2 354 0 376 28 314 40
-88 135 -87 145 1 6 48 44 82 44 39 0 -25 231 4 267 33 27 23 35 17 59 -40 15
-37 53 -97 84 -133 42 -50 50 -72 33 -89 -13 -13 -23 -16 -23 -7 0 9 -13 6
-30 -8 -17 -14 -30 -58 -30 -102 0 -43 -8 -78 -18 -78 -10 0 -23 -14 -30 -31
-7 -20 -3 -27 13 -19 14 7 4 -6 -22 -28 -37 -32 -40 -42 -15 -42 18 0 32 -3
32 -7 0 -4 -14 -87 -31 -183 -32 -186 -29 -211 22 -169 65 54 64 51 176 689
15 88 23 194 18 235 -9 73 -8 75 56 75 94 0 55 26 -41 28 l-80 2 -5 807 -5
806 310 -6 c269 -6 319 -12 380 -48z m600 -757 l0 -807 -140 2 -140 3 -5 805
-5 805 145 0 145 0 0 -808z m740 799 c0 -5 -49 -56 -110 -113 -106 -100 -135
-165 -91 -209 15 -15 -25 -359 -83 -704 -5 -30 11 -35 114 -35 117 0 120 2
113 50 -5 28 -28 176 -52 330 -53 331 -56 319 64 207 52 -48 116 -103 142
-121 51 -36 51 -50 3 -236 -25 -97 -14 -355 18 -415 11 -19 36 -78 56 -131 20
-52 61 -123 91 -156 73 -80 75 -78 -80 -81 -74 -2 -106 -7 -70 -11 133 -17 59
-46 -115 -46 -147 0 -180 6 -180 30 0 23 25 30 105 30 l106 0 -19 161 -19 160
-162 -5 -161 -6 -20 -150 -20 -150 -135 -3 c-91 -2 -135 4 -135 20 0 13 63
370 140 793 77 424 140 777 140 785 0 8 81 15 180 15 99 0 180 -4 180 -9z
m107 -151 c64 -96 65 -100 7 -100 -37 0 -45 -10 -43 -55 3 -67 92 -81 110 -16
9 34 16 30 53 -29 l42 -67 -48 -76 c-26 -42 -48 -85 -48 -97 0 -36 -19 -22
-170 130 -177 176 -176 172 -56 294 112 114 90 112 153 16z m763 -80 c17 -100
20 -102 200 -110 162 -7 177 1 199 105 8 36 23 65 35 65 38 0 249 -122 315
-182 l67 -61 -73 -60 c-78 -64 -92 -116 -43 -157 16 -14 40 -60 53 -103 34
-111 61 -128 160 -99 44 14 87 19 94 12 17 -18 15 -307 -4 -377 -16 -60 -7
-59 -160 -21 -41 10 -59 -6 -131 -114 -93 -140 -96 -191 -12 -246 27 -18 50
-46 50 -62 0 -40 -187 -42 -224 -3 -13 15 -41 23 -60 18 -43 -12 -47 -37 -7
-52 16 -6 34 -45 41 -87 22 -130 23 -131 87 -98 38 20 62 51 70 91 7 34 20 61
31 61 10 0 15 -16 11 -35 -3 -19 -12 -107 -18 -194 -14 -199 7 -183 94 70 49
144 67 176 71 134 6 -49 11 -52 47 -33 46 24 46 24 -49 -115 l-56 -82 93 -248
c122 -321 160 -394 220 -421 87 -40 52 -58 -103 -52 l-151 6 -71 220 c-93 290
-106 298 -106 64 0 -167 5 -199 40 -234 59 -59 55 -60 -130 -60 -159 0 -221
22 -130 46 49 13 64 834 15 834 -58 -1 -79 -36 -72 -121 9 -104 -37 -136 -56
-40 -25 124 -115 78 -127 -65 -10 -106 -36 -153 -86 -154 -9 0 -9 34 -2 75 15
80 15 80 -4 180 l-13 65 105 0 c99 0 104 3 93 45 -10 41 -9 42 15 10 35 -47
52 -24 52 73 l0 82 -127 -1 c-173 -1 -313 -106 -313 -235 0 -52 77 4 124 91
l36 65 -15 -140 c-70 -662 141 -1090 259 -525 28 135 91 171 69 40 -7 -41 -13
-132 -13 -202 0 -100 -6 -125 -28 -117 -15 6 -62 3 -104 -6 -369 -84 -556 642
-257 997 48 58 49 63 13 63 -50 0 -80 -37 -96 -117 -15 -74 -50 -80 -143 -23
-97 59 -102 53 -74 -95 14 -74 46 -256 70 -405 47 -291 59 -328 119 -360 79
-42 38 -60 -140 -60 -165 0 -225 19 -150 47 30 12 39 88 19 163 -16 60 -200
46 -217 -17 -21 -80 -12 -114 37 -136 78 -36 40 -57 -100 -57 -136 0 -162 19
-79 57 68 30 76 55 148 482 43 251 56 375 42 389 -13 13 -20 6 -20 -24 0 -24
-10 -44 -21 -44 -12 0 -16 8 -10 19 6 10 3 24 -9 31 -11 7 -20 -7 -20 -30 0
-62 -45 -39 -52 26 -5 49 1 54 63 54 60 0 69 7 69 49 0 31 14 53 42 61 22 8
36 19 29 26 -6 6 20 44 59 84 l72 73 -74 146 -74 145 -110 -14 -110 -14 12
206 c15 238 17 243 127 213 88 -23 147 -1 147 55 0 13 27 58 60 100 74 94 74
103 -1 181 l-61 63 71 54 c202 154 342 182 361 72z m937 -241 c62 -88 136
-278 119 -306 -17 -27 -58 26 -135 173 -105 201 -94 288 16 133z m-4390 -614
l0 -475 -70 149 c-99 211 -125 319 -85 342 36 20 35 211 -1 307 -12 30 -21 58
-21 63 0 9 144 87 164 88 8 1 14 -213 13 -474z m4465 -278 c-12 -42 -49 -111
-83 -152 -68 -82 -122 -100 -105 -35 6 22 18 40 26 40 8 0 27 28 41 63 29 68
119 184 133 170 5 -5 -1 -44 -12 -86z m-1978 -107 c8 -55 4 -60 -47 -60 -42 0
-57 10 -57 36 0 20 -11 47 -24 60 -19 19 -8 24 48 24 64 0 72 -6 80 -60z
m-2824 -197 c136 -65 166 -302 52 -421 -53 -55 -54 -59 -16 -71 146 -46 159
-331 23 -462 -59 -56 -70 -59 -282 -66 -212 -7 -323 16 -211 44 69 17 78 104
62 560 -11 285 -9 376 9 365 13 -8 23 -26 23 -41 0 -93 134 -78 146 16 4 35 9
-34 11 -152 2 -168 9 -215 31 -215 58 0 79 61 77 227 -2 131 2 154 20 118 19
-41 104 -83 125 -62 4 5 -3 30 -16 57 -40 80 -106 100 -320 98 -203 -2 -228 3
-203 43 21 34 379 5 469 -38z m1888 -40 c39 -288 -3 -408 -72 -201 l-36 109
-80 -8 c-50 -4 -80 1 -80 15 0 19 56 32 105 24 8 -1 15 9 16 23 0 14 27 -6 59
-45 l59 -70 0 96 c1 53 -7 92 -16 86 -9 -6 -48 -2 -87 9 -107 29 -215 -16
-270 -112 -24 -43 -41 -81 -38 -84 16 -16 112 37 112 62 0 16 18 50 40 76 l40
47 -32 -78 c-41 -103 -63 -397 -44 -594 34 -353 169 -396 261 -84 58 197 75
184 75 -55 0 -181 -4 -201 -35 -196 -19 3 -68 -2 -109 -10 -249 -49 -446 294
-389 680 11 75 20 175 21 222 1 69 8 85 38 85 20 0 69 23 110 50 63 44 93 50
207 47 l133 -5 12 -89z m2972 69 c0 -38 -32 -45 -165 -36 -179 12 -159 64 25
64 106 0 140 -7 140 -28z m-2620 -12 c0 -12 -67 -20 -160 -20 -93 0 -160 8
-160 20 0 12 67 20 160 20 93 0 160 -8 160 -20z m320 0 c0 -11 -57 -20 -130
-20 -73 0 -130 9 -130 20 0 11 57 20 130 20 73 0 130 -9 130 -20z m-369 -245
l-11 -205 41 90 c23 50 53 135 68 189 30 120 75 150 57 39 l-12 -76 45 43 c26
24 63 38 87 34 23 -5 63 5 88 22 25 16 46 23 46 16 0 -8 13 2 28 23 49 67 92
7 84 -117 -10 -140 -9 -137 -37 -120 -20 11 -20 8 -1 -15 13 -17 30 -68 38
-114 7 -46 23 -84 36 -84 12 0 9 -9 -8 -20 -32 -21 -185 -26 -250 -9 -33 9
-40 27 -38 109 1 54 -6 94 -14 89 -9 -6 -13 42 -9 105 l6 115 -68 -78 c-37
-43 -67 -89 -67 -104 0 -56 195 -560 246 -633 43 -63 69 -60 35 4 -30 57 6
122 67 122 62 0 95 -43 88 -113 -5 -46 3 -58 40 -64 l46 -6 -6 480 c-6 459 4
568 33 373 12 -82 17 -88 53 -69 21 11 48 15 58 9 11 -7 20 12 20 44 0 31 9
70 20 86 22 34 25 -758 3 -840 -16 -58 -141 -128 -221 -123 -29 1 -137 6 -242
11 l-190 8 -80 232 c-44 128 -84 232 -90 232 -24 0 5 -391 32 -422 43 -49 38
-51 -132 -52 -179 -1 -176 -2 -117 57 42 42 43 50 29 485 -9 288 -7 435 6 422
10 -11 22 -51 26 -90 9 -108 136 -120 136 -13 0 70 16 133 34 133 5 0 4 -92
-3 -205z m-426 32 c-14 -6 -25 -28 -25 -49 0 -21 -8 -38 -19 -38 -10 0 -22
-16 -26 -35 -4 -19 -9 3 -10 50 -2 80 1 85 51 83 30 0 43 -6 29 -11z m13 -167
c9 0 26 -23 39 -51 13 -30 15 -46 3 -39 -25 16 -26 -2 0 -49 14 -28 12 -40
-12 -49 -17 -6 -26 -20 -19 -30 6 -9 -2 -28 -18 -41 -34 -28 -54 27 -46 122 4
44 10 50 35 31 18 -14 16 -7 -5 18 -21 25 -32 62 -27 90 13 69 16 72 26 33 5
-19 16 -35 24 -35z m958 -307 c-36 -36 -138 -53 -181 -30 -67 35 -34 57 86 57
102 0 117 -4 95 -27z m-1679 -393 c40 0 44 -5 23 -30 -25 -30 14 -42 96 -31
15 2 40 -7 55 -20 22 -18 29 -18 29 0 0 13 8 18 18 12 27 -17 116 36 107 64
-12 37 66 30 98 -8 62 -75 121 -81 442 -42 168 20 401 40 519 44 117 4 223 13
235 20 11 7 21 5 21 -5 0 -20 -329 -180 -750 -364 -154 -68 -370 -163 -480
-211 -308 -136 -299 -141 -478 253 -156 344 -157 346 -57 330 41 -7 96 -12
122 -12z"/>
<path d="M4710 4066 c-68 -17 -72 -37 -19 -87 l52 -49 39 48 c61 75 29 113
-72 88z"/>
<path d="M4334 4005 c-64 -5 -94 -15 -88 -31 5 -13 24 -23 44 -21 19 2 54 -14
77 -35 53 -49 62 -48 102 13 34 52 27 92 -15 85 -13 -2 -67 -7 -120 -11z"/>
<path d="M3870 3905 c9 -19 20 -56 25 -81 6 -28 22 -44 41 -40 47 9 51 50 5
62 -25 6 -41 27 -41 52 0 23 -10 42 -22 42 -13 0 -16 -14 -8 -35z"/>
<path d="M4026 3860 c6 -22 2 -40 -8 -40 -10 0 -18 -15 -18 -32 0 -23 12 -29
40 -22 22 6 45 2 51 -8 7 -10 21 -13 33 -6 13 8 11 19 -7 30 -21 14 -19 17 8
18 19 0 35 15 35 32 0 23 -12 29 -40 22 -26 -7 -40 0 -40 18 0 15 -15 28 -32
28 -23 0 -29 -12 -22 -40z"/>
<path d="M1980 3447 l0 -212 101 10 c144 13 169 46 169 217 0 168 -26 198
-174 198 l-96 0 0 -213z"/>
<path d="M1990 3004 c-5 -6 -10 -118 -10 -250 l0 -239 123 9 c159 12 177 36
177 238 0 194 -26 231 -175 243 -57 5 -109 4 -115 -1z m166 -148 c29 -29 32
-156 4 -156 -11 0 -21 -16 -22 -35 -3 -60 -34 58 -36 140 -2 78 13 92 54 51z"/>
<path d="M1823 2219 c-32 -13 -43 -30 -35 -51 7 -17 12 -49 12 -70 0 -30 14
-38 70 -38 70 0 70 0 70 90 0 97 -19 108 -117 69z"/>
<path d="M1240 1670 c0 -423 0 -422 80 -411 72 10 164 148 188 281 7 42 5 55
-4 33 -17 -40 -77 76 -195 372 -29 74 -57 135 -61 135 -4 0 -8 -184 -8 -410z"/>
<path d="M1802 1956 c-1 -8 -21 -110 -43 -227 -23 -117 -39 -216 -35 -218 3
-3 45 -11 94 -19 l87 -13 -13 75 c-20 112 -89 418 -90 402z"/>
<path d="M4364 3565 c10 -52 76 -58 76 -6 0 28 -13 41 -41 41 -29 0 -40 -11
-35 -35z"/>
<path d="M5127 3548 c-15 -37 21 -78 51 -59 32 20 27 65 -9 79 -18 6 -36 -2
-42 -20z"/>
<path d="M4558 3472 c-608 -217 -508 -1116 131 -1167 579 -46 877 653 446
1049 -144 132 -395 183 -577 118z m375 -165 c431 -204 280 -845 -199 -847
-469 -1 -606 630 -184 849 81 41 294 41 383 -2z"/>
<path d="M4590 3222 c-225 -140 -252 -411 -59 -580 297 -261 705 151 476 482
-91 131 -289 178 -417 98z m180 -122 c-12 -38 -7 -40 71 -27 67 10 82 7 75
-15 -5 -17 -48 -32 -107 -38 -94 -10 -98 -13 -115 -85 -39 -163 45 -241 165
-156 75 53 82 20 8 -38 -169 -133 -333 17 -257 237 15 44 12 47 -37 35 -57
-15 -59 -13 -41 35 8 21 37 32 88 32 42 0 86 13 100 30 36 43 65 37 50 -10z"/>
<path d="M3963 2937 c4 -26 21 -47 37 -47 43 0 37 78 -7 87 -28 5 -35 -4 -30
-40z"/>
<path d="M5460 2860 c0 -27 13 -40 40 -40 27 0 40 13 40 40 0 27 -13 40 -40
40 -27 0 -40 -13 -40 -40z"/>
<path d="M4307 2289 c-17 -44 25 -85 56 -54 25 25 9 85 -23 85 -12 0 -27 -14
-33 -31z"/>
<path d="M4116 2217 c-47 -17 -52 -26 -35 -70 10 -27 19 -71 19 -97 0 -47 26
-54 77 -22 17 11 34 7 45 -10 11 -18 18 18 18 97 0 136 -9 144 -124 102z"/>
<path d="M4061 1790 c-51 -314 -55 -283 32 -297 42 -6 82 -5 89 3 11 12 -53
328 -86 425 -5 16 -21 -43 -35 -131z"/>
<path d="M620 1503 c0 -238 9 -274 65 -252 116 44 98 468 -21 485 -43 7 -44 3
-44 -233z"/>
</g>
</svg>
