<?xml version="1.0" standalone="no"?>
<!DOCTYPE svg PUBLIC "-//W3C//DTD SVG 20010904//EN"
 "http://www.w3.org/TR/2001/REC-SVG-20010904/DTD/svg10.dtd">
<svg version="1.0" xmlns="http://www.w3.org/2000/svg"
 width="900.000000pt" height="156.000000pt" viewBox="0 0 900.000000 156.000000"
 preserveAspectRatio="xMidYMid meet">
<metadata>
Created by potrace 1.10, written by Peter Selinger 2001-2011
</metadata>
<g transform="translate(0.000000,156.000000) scale(0.100000,-0.100000)"
fill="#fff" stroke="none">
<path d="M780 1546 c0 -16 -30 -26 -85 -26 -45 0 -137 -29 -187 -60 -18 -11
-40 -23 -48 -27 -24 -10 -92 -64 -131 -103 -166 -166 -260 -428 -230 -643 7
-45 19 -102 27 -127 8 -25 14 -52 14 -61 0 -9 7 -22 15 -29 8 -7 15 -21 15
-32 0 -10 7 -21 15 -24 28 -11 15 -30 -50 -73 -87 -57 -112 -85 -119 -135 -12
-85 18 -142 86 -166 52 -19 104 -1 193 66 39 30 78 54 85 54 8 0 24 -10 36
-21 32 -30 94 -64 174 -96 83 -34 288 -46 430 -25 82 12 140 30 191 61 19 12
41 24 49 28 51 22 212 174 231 217 5 11 18 35 29 51 11 17 22 37 26 45 3 8 11
29 19 45 7 17 17 40 20 53 6 21 10 22 53 16 26 -4 55 -11 66 -16 21 -12 184
-17 206 -7 14 6 225 10 525 10 142 -1 277 8 290 19 5 4 26 11 45 15 37 8 120
58 133 81 14 25 27 5 27 -41 0 -69 21 -78 178 -77 70 0 135 1 145 1 9 1 27 12
39 27 24 27 57 27 88 -1 42 -37 416 -57 510 -28 51 16 60 26 60 70 0 45 11 47
51 10 75 -68 162 -93 309 -89 52 1 162 2 243 1 221 -1 239 11 235 164 -3 86
-2 92 17 92 16 0 20 -7 21 -40 3 -78 46 -140 124 -176 65 -30 154 -43 315 -46
213 -3 275 16 275 86 0 31 17 34 52 9 18 -13 35 -26 38 -29 3 -4 21 -10 40
-14 19 -4 40 -11 46 -16 16 -13 299 -32 373 -25 35 3 69 10 76 16 7 6 18 31
24 55 6 25 14 45 17 45 5 0 28 -17 81 -60 7 -6 17 -10 24 -10 6 0 25 -6 42
-14 47 -22 149 -38 267 -43 98 -4 108 -2 140 19 27 18 36 31 38 58 2 32 15
115 28 182 3 16 12 28 20 28 19 0 28 -42 21 -106 -4 -44 -2 -58 14 -79 20 -24
24 -25 140 -25 117 0 121 1 144 26 22 24 25 35 22 98 -2 60 1 71 16 74 12 2
17 -3 17 -18 0 -20 93 -120 112 -120 5 0 6 -4 3 -10 -3 -5 -28 -10 -55 -10
-55 0 -75 -20 -65 -62 6 -24 57 -88 71 -88 4 0 15 -6 23 -14 36 -31 115 -46
249 -47 134 -1 205 13 240 48 7 7 18 13 23 13 15 0 59 78 59 105 0 15 5 35 11
47 6 11 11 49 12 86 1 38 7 67 13 69 7 2 22 -17 34 -42 12 -26 29 -49 37 -52
24 -9 63 -49 56 -56 -3 -4 -28 -7 -55 -7 l-48 0 0 -41 c0 -67 42 -109 153
-153 56 -23 313 -24 356 -2 16 9 35 16 41 16 6 0 16 5 23 10 45 38 54 48 69
70 38 60 48 142 48 384 0 297 6 286 -145 286 -79 0 -105 -3 -115 -15 -16 -20
-40 -19 -70 2 -37 27 -183 25 -236 -2 -50 -26 -122 -98 -126 -127 -2 -13 -10
-23 -18 -23 -12 0 -15 13 -15 60 0 45 -5 65 -20 82 -18 21 -28 23 -121 23 -78
0 -104 -3 -114 -15 -16 -20 -35 -19 -67 3 -40 26 -186 24 -239 -3 -21 -11 -44
-25 -51 -32 -7 -6 -17 -13 -22 -15 -4 -1 -26 -30 -47 -63 -36 -57 -38 -64 -39
-142 0 -80 -8 -112 -21 -79 -5 14 -25 16 -139 16 -129 0 -133 -1 -139 -22 -6
-22 -7 -22 -21 -4 -8 10 -20 44 -26 75 -16 69 -59 133 -115 168 -71 45 -109
54 -221 55 -127 0 -182 -15 -248 -67 -22 -18 -45 -30 -51 -28 -8 3 -10 38 -6
116 4 110 4 114 -21 142 -25 30 -26 30 -159 35 -202 8 -230 -11 -215 -141 8
-67 -13 -89 -82 -89 -28 0 -52 -4 -55 -9 -3 -5 -18 -12 -33 -16 -27 -6 -102
-59 -116 -82 -11 -17 -37 -16 -37 1 0 15 -56 63 -105 89 -71 37 -127 45 -337
49 -184 2 -208 1 -225 -15 -24 -21 -57 -22 -76 -2 -12 12 -55 15 -219 17
l-203 3 -1 35 c-1 66 -4 75 -31 88 -32 14 -269 17 -307 2 -32 -12 -56 -57 -49
-92 4 -23 0 -31 -30 -48 -19 -11 -37 -29 -40 -40 -4 -14 -11 -17 -28 -13 -13
3 -28 9 -34 14 -5 4 -38 17 -72 28 -52 18 -87 21 -212 21 -137 0 -151 -2 -160
-19 -6 -10 -20 -21 -31 -24 -18 -4 -20 -2 -14 11 14 30 17 164 4 188 -20 36
-58 45 -192 46 -97 0 -132 -4 -156 -16 -36 -19 -35 -9 -32 -178 1 -94 -1 -128
-10 -128 -7 0 -29 14 -50 30 -21 17 -44 30 -52 30 -8 0 -23 7 -34 15 -10 8
-40 15 -65 15 -68 0 -84 22 -81 113 1 40 -1 77 -5 82 -4 6 -24 17 -43 25 -29
13 -58 14 -160 8 -145 -9 -145 -9 -310 -2 -155 7 -195 -3 -208 -49 -5 -18 -7
-58 -4 -89 4 -54 3 -57 -21 -63 -14 -4 -35 -4 -46 0 -18 5 -21 15 -21 60 0 80
-18 88 -179 82 -69 -2 -135 -8 -146 -11 -16 -6 -33 6 -80 51 -61 60 -128 114
-155 126 -8 4 -30 16 -48 27 -50 31 -142 60 -187 60 -55 0 -85 10 -85 26 0 11
-19 14 -80 14 -61 0 -80 -3 -80 -14z m292 -105 c59 -20 112 -50 104 -59 -3 -2
-43 -6 -89 -7 -119 -3 -179 -28 -290 -119 -45 -37 -76 -81 -126 -181 -23 -46
-25 -61 -26 -180 0 -125 -1 -130 -23 -141 -12 -6 -34 -22 -48 -35 -23 -21 -25
-30 -22 -83 l3 -59 -50 -34 c-43 -30 -51 -33 -61 -19 -19 26 -43 19 -111 -35
-73 -59 -80 -58 -108 21 -83 231 -57 460 74 655 101 150 279 268 446 295 81
14 262 3 327 -19z m132 -107 c48 -19 -54 -34 -114 -17 l-25 7 30 7 c40 9 90
10 109 3z m104 -41 c2 -7 -3 -13 -12 -13 -9 0 -16 -4 -16 -10 0 -13 26 -13 50
0 22 12 41 -7 20 -20 -10 -6 2 -22 41 -58 54 -50 54 -50 35 -71 -11 -12 -25
-21 -32 -21 -7 0 -17 -7 -22 -16 -14 -25 -32 -7 -32 32 0 20 -9 47 -22 64 -25
34 -58 40 -58 11 0 -21 -19 -31 -55 -31 -34 0 -37 13 -10 42 20 22 22 27 9 32
-30 11 -41 6 -103 -53 l-63 -58 7 -50 c6 -45 5 -51 -14 -56 -18 -4 -21 -13
-21 -65 0 -44 -4 -61 -15 -66 -11 -4 -15 -20 -15 -55 0 -27 -4 -52 -8 -55 -4
-3 -28 0 -52 5 -40 9 -45 8 -72 -17 -15 -15 -28 -34 -28 -41 0 -7 -11 -13 -24
-13 -13 0 -27 -8 -30 -17 -5 -11 -10 -13 -17 -6 -8 8 -6 18 5 36 15 23 13 57
-4 57 -4 0 -12 -10 -19 -22 -10 -20 -11 -19 -5 12 14 78 15 214 3 237 -7 13
-9 26 -6 30 4 3 7 -1 7 -11 0 -29 35 -14 38 16 2 15 10 32 18 38 8 7 14 18 14
24 0 26 134 146 163 146 9 0 22 7 31 15 11 11 48 17 136 22 66 3 123 10 126
15 8 13 47 6 52 -9z m935 -15 c12 -6 27 -18 34 -27 11 -14 12 -14 13 1 0 10 9
22 21 28 28 16 264 9 280 -7 7 -7 14 -47 17 -89 4 -64 8 -77 23 -81 11 -3 19
-9 19 -14 0 -4 21 -11 48 -14 45 -6 80 -19 146 -53 41 -21 66 -42 86 -75 l17
-28 7 73 c4 40 6 119 6 175 -2 103 -1 103 25 113 14 5 79 10 144 10 152 0 161
-7 161 -115 0 -48 -4 -75 -12 -77 -8 -3 -7 -11 5 -28 13 -19 17 -47 17 -132 0
-60 3 -108 6 -108 3 0 18 10 33 22 l27 23 -24 20 c-23 20 -23 22 -12 85 22
120 14 115 180 118 113 2 151 -1 176 -13 18 -8 42 -15 53 -15 12 0 39 -11 61
-25 51 -32 62 -31 81 7 8 18 29 40 45 49 16 9 28 22 26 29 -4 19 18 73 36 88
18 13 233 16 267 3 14 -6 22 -23 30 -62 l10 -54 65 -5 c36 -3 70 -8 77 -13 6
-4 14 -3 18 3 4 6 55 10 124 10 102 0 122 -3 143 -20 21 -16 31 -18 61 -9 20
5 39 13 41 18 3 5 98 9 211 10 170 1 210 -1 228 -14 12 -8 30 -15 41 -15 52 0
166 -83 182 -132 5 -17 10 -14 44 24 21 24 53 50 71 59 88 41 107 48 149 54
72 10 81 22 87 115 5 75 8 82 30 91 27 10 215 12 251 3 41 -11 52 -51 53 -193
1 -72 3 -131 4 -131 2 0 21 18 43 40 21 22 44 40 49 40 6 0 16 7 23 15 7 8 22
15 34 15 12 0 31 7 42 15 27 21 241 21 268 0 11 -8 26 -15 34 -15 7 0 20 -6
27 -12 8 -7 28 -24 45 -38 16 -13 30 -29 30 -36 0 -6 7 -17 15 -24 8 -7 15
-25 15 -39 0 -15 7 -36 15 -47 24 -32 18 -65 -17 -96 -30 -26 -31 -30 -15 -39
19 -11 23 -39 7 -55 -5 -5 -13 -34 -17 -64 l-8 -55 -50 -13 c-30 -8 -75 -11
-110 -7 -33 3 -95 8 -137 11 -47 4 -82 12 -89 20 -6 8 -24 14 -39 14 -15 0
-33 7 -40 15 -7 8 -18 15 -25 15 -13 0 -85 69 -85 82 0 5 -5 6 -10 3 -6 -3 -9
-25 -9 -49 1 -26 -5 -52 -16 -69 l-17 -27 -198 0 c-163 0 -200 3 -210 15 -7 8
-27 15 -45 15 -18 0 -38 7 -45 15 -7 8 -18 15 -24 15 -7 0 -31 16 -53 35 -46
39 -53 34 -53 -35 0 -20 -6 -43 -13 -49 -15 -12 -113 -29 -218 -38 -45 -4 -87
0 -131 11 -35 9 -80 16 -100 16 -46 0 -131 42 -157 78 -12 15 -25 32 -31 39
-13 16 -13 90 0 98 6 3 10 15 10 26 0 10 -4 19 -10 19 -5 0 -10 -4 -10 -9 0
-5 -17 -11 -39 -15 -46 -7 -51 -19 -51 -121 -1 -113 0 -113 -210 -120 -96 -3
-202 -6 -235 -6 -92 -2 -203 12 -216 27 -6 8 -19 14 -28 14 -25 0 -87 61 -105
104 -9 21 -16 65 -16 97 0 33 -4 59 -9 59 -5 0 -11 -61 -13 -135 -2 -78 -8
-139 -14 -145 -47 -47 -434 -41 -521 8 -12 6 -27 12 -33 12 -6 0 -20 9 -32 20
-24 22 -38 18 -38 -10 0 -39 -51 -52 -186 -48 -68 1 -128 8 -133 13 -6 6 -14
45 -17 88 l-7 77 -25 -40 c-14 -21 -33 -41 -41 -44 -23 -9 -61 -32 -74 -45 -6
-6 -23 -11 -37 -11 -14 0 -34 -6 -45 -14 -14 -9 -71 -16 -181 -21 -189 -8
-240 -3 -250 28 -6 19 -8 19 -19 4 -23 -31 -67 -39 -220 -37 -82 1 -178 -3
-213 -9 -44 -8 -69 -8 -83 -1 -10 6 -49 13 -86 15 -36 2 -71 9 -77 15 -5 5
-17 10 -26 10 -38 0 -103 88 -116 156 -5 28 -9 32 -20 23 -11 -9 -18 -8 -29 1
-9 7 -32 13 -53 14 l-37 1 -3 53 c-3 45 -7 54 -27 62 -31 12 -46 41 -43 82 3
27 -1 34 -19 36 -39 6 -41 62 -2 82 16 9 21 7 28 -14 6 -13 15 -27 20 -31 6
-3 11 -16 11 -28 0 -27 37 -63 74 -73 l27 -6 -7 50 c-5 42 -3 54 16 80 13 17
33 33 46 36 20 5 24 13 24 44 0 21 7 48 16 60 16 23 20 23 159 20 79 -2 146
-6 150 -9 3 -4 8 -29 12 -58 l6 -51 43 -2 c99 -4 88 -13 94 82 5 79 6 85 30
91 43 12 250 10 273 -3z m5305 -137 c9 -5 37 -19 61 -31 l45 -22 16 22 c14 19
24 21 95 18 l80 -3 12 -105 c10 -85 10 -137 -1 -277 l-14 -172 -42 -41 c-23
-22 -51 -42 -63 -45 -175 -37 -177 -37 -327 -7 -70 13 -161 77 -145 102 4 6
50 10 115 10 87 0 109 -3 114 -15 4 -10 20 -15 53 -15 63 0 93 27 93 85 0 23
-3 44 -6 48 -4 3 -27 -5 -53 -18 -61 -33 -158 -35 -216 -4 -40 21 -105 80
-105 95 0 4 -8 16 -17 26 -13 15 -16 35 -14 98 3 124 51 200 151 243 39 17
141 22 168 8z m760 -22 c61 -30 82 -31 82 -3 0 12 16 14 88 12 l87 -3 0 -272
c0 -265 -1 -272 -21 -292 -12 -11 -24 -24 -25 -28 -10 -24 -72 -51 -140 -63
-72 -12 -134 -10 -249 6 -60 9 -150 67 -150 98 0 14 15 16 109 16 84 0 111 -3
121 -15 8 -9 30 -15 58 -15 62 0 92 28 92 86 0 24 -4 45 -8 48 -5 3 -24 -5
-43 -16 -24 -15 -56 -22 -109 -25 -65 -4 -81 -1 -120 20 -25 14 -67 50 -93 80
l-48 55 -1 86 c0 67 3 91 16 105 9 10 16 23 16 29 0 20 77 85 122 103 71 28
145 24 216 -12z m-7158 2 c0 -12 -29 -35 -36 -28 -11 10 5 37 21 37 8 0 15 -4
15 -9z m-14 -127 c15 -22 15 -27 3 -35 -22 -15 -63 -6 -67 14 -10 50 36 65 64
21z m-439 -111 c-3 -10 -5 -2 -5 17 0 19 2 27 5 18 2 -10 2 -26 0 -35z m460 5
c27 -25 29 -41 8 -58 -22 -19 -19 -24 30 -45 54 -24 53 -40 -3 -39 -35 1 -42
-3 -46 -23 -7 -27 -49 -41 -71 -23 -22 19 -19 71 4 77 18 5 17 8 -9 46 l-29
42 21 23 c27 28 65 28 95 0z m5971 -160 l-3 -93 -100 0 -100 0 -3 79 c-2 44
-1 85 2 93 4 10 31 13 106 13 l101 0 -3 -92z m-6405 -60 c15 -24 43 -61 62
-83 57 -65 58 -103 2 -135 -20 -11 -30 -12 -51 -2 -34 15 -146 167 -146 198 0
34 34 64 73 64 28 0 37 -7 60 -42z m160 18 c29 -17 66 -26 120 -31 42 -4 77
-8 77 -10 0 -2 -11 -16 -25 -30 -18 -17 -37 -25 -60 -25 -24 0 -35 -5 -35 -15
0 -10 10 -15 34 -15 18 0 39 7 46 15 15 18 77 20 83 3 2 -9 29 -13 88 -13 68
0 86 3 97 17 10 14 17 15 35 7 16 -7 32 -7 52 1 29 11 29 12 11 26 -25 18 -85
18 -105 0 -10 -9 -43 -15 -91 -17 -66 -2 -75 0 -79 16 -3 16 2 17 42 12 31 -4
50 -2 63 8 10 8 35 15 55 15 20 0 42 7 49 15 18 21 43 19 72 -8 14 -13 43 -33
64 -44 24 -12 40 -28 42 -41 4 -27 -58 -151 -109 -220 -104 -138 -269 -243
-429 -272 -58 -11 -183 -11 -240 0 -108 20 -280 102 -280 133 0 7 17 23 38 35
21 11 51 33 66 47 26 24 27 27 13 49 -15 22 -14 24 35 61 41 30 54 36 67 27
45 -32 74 -43 101 -37 30 6 80 47 80 64 0 21 22 22 63 3 145 -68 268 -69 407
-3 60 28 130 83 130 103 0 25 -20 23 -66 -8 -30 -21 -42 -24 -56 -15 -25 16
-33 14 -17 -5 10 -13 10 -17 -2 -25 -8 -5 -21 -6 -29 -2 -30 12 -80 15 -80 4
0 -6 6 -11 14 -11 8 0 18 -4 21 -10 4 -6 -37 -10 -116 -10 -74 0 -119 4 -113
9 5 5 18 11 29 13 19 5 19 5 1 13 -11 5 -36 4 -57 -2 -23 -6 -43 -6 -51 -1
-10 8 -10 11 0 15 6 2 12 9 12 14 0 13 -28 11 -32 -3 -2 -6 -11 -8 -19 -4 -47
23 -99 65 -99 79 0 5 -7 15 -15 23 -19 20 -19 34 1 34 9 0 18 -9 21 -19 3 -11
22 -32 44 -47 35 -24 42 -25 69 -14 37 15 34 34 -6 38 -16 2 -33 8 -38 13 -6
5 -20 9 -33 9 -17 0 -23 6 -23 23 0 22 7 37 17 37 3 0 23 -11 46 -24z m6706
-69 c15 -19 4 -27 -36 -27 -38 0 -47 26 -10 33 12 2 25 5 28 6 4 0 12 -5 18
-12z m716 -7 c0 -10 -12 -16 -32 -18 -24 -2 -33 1 -33 12 0 15 23 25 50 22 8
-1 15 -8 15 -16z m-7694 -102 l23 -31 -40 -33 c-21 -19 -47 -34 -56 -34 -18 0
-48 36 -48 57 0 11 76 72 92 73 4 0 17 -14 29 -32z m-195 -36 c26 -17 104
-142 98 -156 -3 -9 -10 -16 -14 -16 -5 0 -15 -6 -22 -13 -7 -7 -47 -34 -88
-61 -41 -27 -94 -61 -118 -77 -23 -16 -46 -29 -51 -29 -5 0 -14 -7 -21 -15 -7
-9 -29 -15 -53 -15 -57 0 -87 30 -87 85 0 35 6 46 36 73 20 18 39 32 42 32 4
0 22 15 41 33 35 32 212 166 221 167 3 0 10 -4 16 -8z"/>
<path d="M1974 1236 c-3 -7 -4 -35 -2 -62 l3 -49 125 0 125 0 5 52 c3 28 4 56
2 62 -6 18 -251 15 -258 -3z m191 -56 c4 -6 -18 -10 -60 -10 -42 0 -64 4 -60
10 3 6 30 10 60 10 30 0 57 -4 60 -10z"/>
<path d="M2330 920 l0 -330 173 0 c137 0 177 3 193 15 10 8 33 15 50 15 17 0
37 7 44 15 7 8 17 15 22 15 14 0 88 72 88 86 0 6 7 17 15 24 10 8 15 30 15 65
0 35 -5 57 -15 65 -8 7 -15 18 -15 25 0 21 -78 82 -128 100 -26 9 -77 20 -113
24 -36 4 -71 11 -77 15 -8 5 -12 40 -12 102 l0 94 -120 0 -120 0 0 -330z m193
190 c5 -41 15 -82 23 -91 8 -9 53 -24 102 -34 98 -19 143 -38 186 -77 26 -23
29 -32 29 -87 0 -54 -3 -65 -29 -92 -15 -16 -39 -32 -51 -35 -13 -4 -23 -10
-23 -15 0 -4 -17 -11 -37 -15 -21 -3 -62 -13 -91 -21 -38 -10 -82 -13 -155
-10 l-102 5 -3 264 c-1 144 0 269 3 276 3 9 24 12 72 10 l68 -3 8 -75z"/>
<path d="M2527 932 c-24 -25 -27 -36 -27 -95 0 -80 17 -127 53 -146 64 -34
177 51 177 132 0 43 -33 107 -55 107 -7 0 -18 7 -25 15 -7 9 -29 15 -54 15
-33 0 -48 -6 -69 -28z m120 -35 c28 -25 38 -69 22 -98 -19 -36 -52 -59 -79
-56 -24 2 -25 5 -28 80 -2 46 2 84 8 92 13 16 48 8 77 -18z"/>
<path d="M2992 1183 l3 -68 120 4 c66 1 126 8 133 14 8 6 12 28 10 61 l-3 51
-133 3 -133 3 3 -68z m193 -3 c4 -6 -18 -10 -59 -10 -37 0 -66 4 -66 10 0 6
26 10 59 10 33 0 63 -4 66 -10z"/>
<path d="M5870 1162 c0 -107 -4 -112 -92 -119 -35 -3 -73 -12 -85 -19 -12 -8
-29 -14 -36 -14 -27 0 -97 -60 -117 -102 -21 -44 -27 -132 -10 -143 6 -3 10
-13 10 -22 0 -17 72 -93 88 -93 5 0 15 -7 22 -15 7 -8 28 -15 47 -15 21 0 36
-6 39 -15 5 -13 35 -15 184 -15 98 0 184 2 192 5 10 4 13 67 11 328 l-2 322
-125 3 -126 3 0 -89z m203 -251 l-2 -285 -151 3 c-106 2 -159 7 -178 17 -15 8
-35 14 -45 14 -19 0 -23 2 -81 53 -36 31 -40 39 -44 94 -4 56 -2 62 28 96 48
56 80 68 239 97 30 5 58 15 63 22 4 7 8 47 8 89 0 42 3 79 7 83 4 4 41 5 83 4
l75 -3 -2 -284z"/>
<path d="M5784 908 c-63 -44 -80 -107 -44 -165 38 -64 124 -92 169 -56 20 16
24 30 28 105 5 83 5 87 -20 112 -33 33 -89 35 -133 4z m97 -88 c7 -75 -4 -96
-44 -86 -39 9 -57 33 -57 77 0 50 25 79 65 76 29 -2 30 -3 36 -67z"/>
<path d="M1628 1192 l-107 -3 -3 -62 c-3 -66 -1 -63 -75 -83 -9 -2 -13 -26
-13 -74 0 -69 1 -70 26 -70 57 0 64 -13 64 -111 0 -106 15 -136 92 -174 41
-21 65 -24 169 -27 l121 -3 14 50 c23 89 22 91 -45 98 -35 3 -70 13 -85 23
-22 17 -25 26 -26 81 l0 62 83 3 82 3 3 64 c2 35 -2 69 -7 74 -6 6 -43 11 -83
11 l-73 1 -3 67 c-2 41 -7 67 -15 70 -7 1 -60 2 -119 0z m86 -110 c9 -69 17
-76 88 -82 56 -4 63 -8 66 -27 3 -21 -1 -23 -40 -24 -59 -1 -101 -27 -112 -71
-12 -46 0 -121 24 -148 24 -28 83 -60 111 -60 14 0 19 -5 17 -17 -3 -16 -16
-18 -102 -17 -57 1 -102 6 -109 13 -6 6 -20 11 -30 11 -11 0 -30 10 -43 23
-22 20 -24 30 -24 119 0 104 -8 122 -55 134 -24 6 -41 36 -31 53 3 4 19 11 36
14 34 7 50 37 50 91 0 18 2 35 4 37 2 2 36 3 74 1 l70 -4 6 -46z"/>
<path d="M4010 1185 c-5 -6 -10 -35 -12 -65 -3 -53 -4 -55 -33 -58 -40 -4 -55
-27 -55 -81 0 -57 9 -72 52 -85 l33 -11 6 -96 c4 -82 9 -101 30 -127 13 -17
36 -35 52 -41 15 -5 27 -15 27 -20 0 -7 27 -11 68 -11 37 0 72 -4 78 -10 5 -5
35 -6 74 -2 l64 7 13 50 c24 94 17 105 -73 105 -58 0 -84 30 -84 98 0 57 -1
56 70 53 25 -2 57 2 73 8 26 10 27 14 27 75 0 81 -10 91 -89 83 -38 -4 -62 -2
-69 5 -7 7 -12 38 -12 70 0 32 -3 58 -7 58 -94 6 -227 3 -233 -5z m186 -50 c6
-2 13 -28 16 -59 3 -31 8 -59 12 -63 4 -4 38 -9 77 -11 l69 -4 0 -34 c0 -37 1
-36 -76 -34 -71 2 -84 -13 -84 -99 0 -54 4 -74 21 -95 25 -32 69 -56 103 -56
30 0 40 -13 31 -42 -7 -20 -11 -21 -118 -14 -97 6 -114 10 -150 34 -49 33 -60
64 -52 154 6 64 5 69 -20 94 -15 15 -32 23 -41 20 -9 -4 -18 3 -24 19 -12 31
-3 55 19 55 36 0 61 29 61 71 0 68 9 76 82 71 35 -2 68 -5 74 -7z"/>
<path d="M3388 1064 c-5 -4 -8 -38 -8 -77 l0 -69 118 3 117 4 3 -33 3 -32 -78
0 c-50 0 -88 -6 -107 -15 -15 -8 -34 -15 -42 -15 -8 0 -28 -13 -46 -29 -29
-26 -33 -35 -32 -79 0 -42 5 -54 30 -76 16 -14 35 -26 43 -26 8 0 22 -7 31
-15 13 -12 53 -16 186 -19 93 -2 195 -1 227 1 l59 5 -4 146 c-3 114 -8 154
-21 178 -37 68 -98 108 -202 134 -60 15 -267 25 -277 14z m309 -82 c83 -29
116 -61 131 -123 14 -65 16 -168 2 -203 -9 -25 -12 -26 -97 -25 -59 0 -81 3
-67 9 25 10 49 85 40 126 -4 16 -15 40 -25 53 -14 18 -16 29 -9 41 8 12 6 24
-7 43 -9 15 -22 27 -27 27 -5 0 -16 7 -24 15 -11 11 -38 15 -100 15 -63 0 -84
3 -84 13 0 24 12 27 115 27 71 0 116 -5 152 -18z m-41 -197 c7 -29 -3 -92 -16
-100 -5 -3 -25 2 -44 12 -29 13 -36 22 -36 46 0 58 83 95 96 42z m-135 -5
c-18 -64 5 -116 61 -140 17 -8 5 -9 -47 -6 -100 6 -184 52 -171 94 12 36 85
73 136 69 17 -1 24 -7 21 -17z"/>
<path d="M4840 1056 c-7 -9 -19 -16 -28 -16 -8 0 -23 -6 -31 -14 -9 -8 -28
-17 -42 -21 -23 -6 -28 -3 -37 24 l-11 31 -109 0 c-91 0 -111 -3 -116 -16 -3
-9 -6 -114 -6 -235 l0 -219 119 0 c66 0 126 3 134 6 13 5 15 21 10 95 -6 84
-5 91 17 114 14 15 35 25 51 25 14 0 32 7 39 15 7 8 27 15 45 15 18 0 38 7 45
15 7 8 18 15 25 15 7 0 18 7 25 15 10 12 36 15 116 15 96 0 103 -1 109 -21 10
-31 -2 -37 -90 -42 -104 -5 -152 -24 -192 -77 -36 -46 -41 -71 -18 -90 8 -7
15 -16 15 -21 0 -14 39 -49 54 -49 7 0 19 -6 25 -14 8 -9 40 -16 89 -19 42 -3
112 -10 155 -17 66 -10 87 -9 130 4 29 9 66 17 82 18 l30 3 -1 128 c-1 146
-13 197 -58 245 -61 65 -143 91 -318 99 l-128 6 0 -51 c0 -28 -5 -54 -10 -57
-16 -10 -43 24 -49 64 -5 29 -11 37 -32 39 -14 2 -31 -4 -39 -12z m36 -63 c3
-10 10 -26 15 -35 17 -34 11 -57 -18 -63 -16 -4 -36 -10 -45 -16 -10 -5 -24
-9 -33 -9 -21 0 -98 -41 -110 -59 -5 -9 -12 -54 -15 -101 l-5 -85 -70 2 c-38
1 -76 2 -82 2 -10 1 -13 45 -13 186 l0 185 80 0 c76 0 81 -1 90 -25 15 -40 49
-41 121 -1 75 41 78 42 85 19z m400 0 c10 -6 37 -19 58 -29 21 -10 50 -35 63
-55 22 -34 23 -43 21 -160 l-3 -124 -95 -8 c-161 -14 -342 18 -372 65 -4 7 -8
25 -8 40 0 34 38 62 105 77 28 6 60 14 73 17 l23 7 -25 -46 c-24 -42 -25 -47
-11 -75 17 -32 68 -62 107 -62 43 0 61 22 66 84 4 48 1 62 -17 86 -11 16 -18
36 -15 44 10 27 -5 66 -25 66 -10 0 -24 7 -31 15 -9 11 -34 15 -97 15 -87 0
-103 8 -89 46 6 15 21 16 130 12 67 -3 131 -10 142 -15z m-38 -233 c2 -19 -3
-44 -11 -54 -13 -17 -18 -18 -45 -7 -59 25 -42 105 21 99 29 -3 32 -7 35 -38z"/>
<path d="M6400 1060 c-8 -6 -32 -15 -52 -20 -22 -6 -62 -33 -95 -64 l-58 -54
0 -84 c0 -84 0 -85 39 -132 21 -26 49 -52 62 -56 13 -5 24 -14 24 -20 0 -5 14
-10 30 -10 17 0 33 -6 36 -14 4 -10 42 -15 153 -20 196 -10 197 -9 204 62 6
80 -3 93 -57 86 -25 -4 -79 -3 -121 1 -58 5 -82 12 -103 30 -15 13 -24 27 -19
31 4 4 78 6 165 5 86 -1 163 2 169 7 10 6 10 21 0 71 -11 55 -20 71 -61 112
-27 27 -58 49 -70 49 -11 0 -30 7 -40 15 -23 17 -182 21 -206 5z m223 -70 c23
-11 49 -25 57 -32 28 -24 51 -69 48 -95 -3 -24 -6 -25 -68 -26 l-65 -1 -3 39
c-3 31 -12 48 -39 72 -46 43 -86 44 -135 3 -47 -39 -56 -74 -28 -112 13 -18
19 -36 15 -49 -9 -28 18 -65 66 -89 31 -16 62 -22 132 -23 91 -2 92 -2 92 -27
l0 -25 -137 2 c-107 1 -142 5 -160 17 -12 9 -31 16 -41 16 -18 0 -32 9 -70 47
-44 44 -48 54 -49 114 -1 52 3 65 29 97 28 35 88 74 129 85 11 3 56 5 102 6
64 1 93 -4 125 -19z m-90 -66 c30 -40 16 -54 -53 -54 -67 0 -75 11 -42 55 24
33 71 33 95 -1z"/>
<path d="M1984 1048 c-3 -4 -6 -108 -7 -230 l-2 -223 129 0 128 0 -1 220 c-1
121 -6 224 -10 228 -10 10 -231 15 -237 5z m181 -232 l0 -180 -60 0 -60 0 -6
40 c-12 70 -10 296 3 311 8 10 29 13 67 11 l56 -3 0 -179z"/>
<path d="M2995 1042 c-3 -8 -5 -112 -5 -233 l0 -220 131 3 132 3 -2 220 c-1
121 -6 224 -10 228 -5 5 -61 9 -125 10 -88 2 -117 -1 -121 -11z m193 -224 l-3
-183 -65 0 -65 0 -3 170 c-1 93 0 175 2 182 4 9 27 13 71 13 l65 0 -2 -182z"/>
<path d="M1367 922 c-13 -20 7 -61 39 -78 19 -10 34 -22 34 -26 0 -5 5 -8 11
-8 21 0 4 45 -18 48 -15 2 -26 15 -35 38 -12 33 -22 42 -31 26z"/>
<path d="M1858 853 c-50 -4 -58 -7 -58 -24 0 -19 1 -19 22 -5 29 21 77 21 85
0 8 -22 -16 -35 -49 -28 -16 3 -28 1 -28 -4 0 -10 87 -21 96 -13 7 8 4 81 -3
79 -5 -1 -34 -3 -65 -5z"/>
<path d="M4343 853 c-42 -3 -53 -8 -53 -21 1 -33 25 -50 75 -53 l50 -3 3 42
c2 30 -1 41 -10 40 -7 -1 -37 -3 -65 -5z m41 -19 c9 -3 16 -12 16 -20 0 -10
-13 -14 -45 -14 -32 0 -45 4 -45 14 0 20 44 32 74 20z"/>
<path d="M7472 990 c-17 -22 -22 -43 -22 -90 0 -79 26 -110 94 -110 58 0 93
30 102 88 8 53 1 80 -31 115 -21 22 -34 27 -74 27 -41 0 -50 -4 -69 -30z m112
-31 c40 -48 19 -129 -34 -129 -40 0 -60 24 -60 72 0 70 54 103 94 57z"/>
<path d="M8192 995 c-50 -63 -32 -173 31 -200 70 -29 135 16 145 101 4 37 0
48 -28 83 -29 38 -35 41 -80 41 -40 0 -52 -4 -68 -25z m94 -23 c19 -13 44 -56
44 -77 -1 -32 -35 -65 -67 -65 -40 0 -53 17 -53 69 0 62 38 99 76 73z"/>
</g>
</svg>
